<svg width="300" height="300" xmlns="http://www.w3.org/2000/svg" baseProfile="full" version="1.1" style="fill:white;stroke:none;stroke-width:0px;stroke-linecap:square;">
  <circle cx="70"  cy="70" r="10"></circle>
  <circle cx="110" cy="70" r="10"></circle>
  <circle cx="150" cy="70" r="10"></circle>
  <circle cx="190" cy="70" r="10"></circle>
  <circle cx="230" cy="70" r="10"></circle>

  <circle cx="70"  cy="110" r="10"></circle>
  <circle cx="110" cy="110" r="10"></circle>
  <circle cx="150" cy="110" r="10"></circle>
  <circle cx="190" cy="110" r="10"></circle>
  <circle cx="230" cy="110" r="10"></circle>

  <circle cx="70"  cy="150" r="10"></circle>
  <circle cx="110" cy="150" r="10"></circle>
  <circle cx="150" cy="150" r="10"></circle>
  <circle cx="190" cy="150" r="10"></circle>
  <circle cx="230" cy="150" r="10"></circle>

  <circle cx="70"  cy="190" r="10"></circle>
  <circle cx="110" cy="190" r="10"></circle>
  <circle cx="150" cy="190" r="10"></circle>
  <circle cx="190" cy="190" r="10"></circle>
  <circle cx="230" cy="190" r="10"></circle>

  <circle cx="70"  cy="230" r="10"></circle>
  <circle cx="110" cy="230" r="10"></circle>
  <circle cx="150" cy="230" r="10"></circle>
  <circle cx="190" cy="230" r="10"></circle>
  <circle cx="230" cy="230" r="10"></circle>
</svg>